<svg width="19" height="18" viewBox="0 0 19 18" fill="none" xmlns="http://www.w3.org/2000/svg">
<g clip-path="url(#clip0)">
<path d="M9.03556 0C4.05329 0 0 4.03734 0 9C0 13.9627 4.05329 18 9.03556 18C14.0178 18 18.0711 13.9627 18.0711 9C18.0711 4.03734 14.0178 0 9.03556 0ZM8.50613 4.4176C7.70068 4.38313 6.90337 4.27039 6.14204 4.08705C6.26365 3.80003 6.39559 3.52441 6.53787 3.26321C7.12162 2.19177 7.83828 1.4399 8.50613 1.16757V4.4176ZM8.50613 5.47311V8.47266H5.19928C5.24588 7.30193 5.44621 6.13971 5.77751 5.08255C6.65548 5.30283 7.57715 5.43617 8.50613 5.47311ZM8.50613 9.52734V12.5269C7.57715 12.5638 6.65548 12.6972 5.77751 12.9174C5.44621 11.8603 5.24588 10.6981 5.19928 9.52734H8.50613ZM8.50613 13.5824V16.8324C7.83828 16.5601 7.12162 15.8082 6.53787 14.7368C6.39559 14.4756 6.26365 14.2 6.14204 13.9129C6.90337 13.7296 7.70054 13.6169 8.50613 13.5824ZM9.56498 13.5824C10.3704 13.6169 11.1677 13.7296 11.9291 13.9129C11.8075 14.2 11.6755 14.4756 11.5332 14.7368C10.9495 15.8082 10.2328 16.5601 9.56498 16.8324V13.5824ZM9.56498 12.5269V9.52734H12.8718C12.8252 10.6981 12.6249 11.8603 12.2936 12.9174C11.4156 12.6972 10.494 12.5638 9.56498 12.5269ZM9.56498 8.47266V5.47311C10.494 5.43617 11.4156 5.30283 12.2936 5.08255C12.6249 6.13971 12.8252 7.30193 12.8718 8.47266H9.56498ZM9.56498 4.4176V1.16757C10.2328 1.4399 10.9495 2.19177 11.5332 3.26321C11.6755 3.52441 11.8075 3.80003 11.9291 4.08705C11.1677 4.27039 10.3704 4.38313 9.56498 4.4176ZM12.4639 2.76018C12.1987 2.27348 11.9107 1.84447 11.6071 1.47849C12.6657 1.83856 13.6246 2.41466 14.431 3.15349C13.9711 3.3989 13.4754 3.61203 12.954 3.79015C12.8061 3.43227 12.6426 3.08798 12.4639 2.76018V2.76018ZM5.60724 2.76018C5.42856 3.08798 5.26504 3.43227 5.11711 3.79015C4.59568 3.61203 4.10003 3.39876 3.64009 3.15349C4.4465 2.41466 5.4054 1.83856 6.46397 1.47849C6.16038 1.84447 5.8725 2.27335 5.60724 2.76018ZM4.75892 4.78139C4.39755 5.93289 4.18509 7.18822 4.13932 8.47266H1.07692C1.19025 6.75865 1.85106 5.19118 2.88731 3.94341C3.46237 4.2719 4.09217 4.55287 4.75892 4.78139ZM4.13932 9.52734C4.18509 10.8119 4.39755 12.0671 4.75892 13.2186C4.09217 13.4471 3.46237 13.7281 2.88731 14.0566C1.85106 12.8088 1.19025 11.2413 1.07692 9.52734H4.13932ZM5.11711 14.2099C5.26504 14.5677 5.42856 14.912 5.60724 15.2398C5.8725 15.7265 6.16038 16.1555 6.46397 16.5215C5.4054 16.1614 4.4465 15.5853 3.64022 14.8465C4.09989 14.6012 4.59568 14.388 5.11711 14.2099ZM12.4639 15.2398C12.6426 14.912 12.8061 14.5677 12.954 14.2099C13.4754 14.388 13.9711 14.6012 14.431 14.8465C13.6246 15.5853 12.6657 16.1614 11.6071 16.5215C11.9107 16.1555 12.1986 15.7267 12.4639 15.2398V15.2398ZM13.3122 13.2186C13.6736 12.0671 13.886 10.8118 13.9318 9.52734H16.9942C16.8809 11.2413 16.22 12.8088 15.1838 14.0566C14.6087 13.7281 13.9789 13.4471 13.3122 13.2186V13.2186ZM13.9318 8.47266C13.886 7.18808 13.6736 5.93289 13.3122 4.78139C13.9789 4.55287 14.6087 4.2719 15.1838 3.94341C16.22 5.19118 16.8809 6.75865 16.9942 8.47266H13.9318Z" fill="#35897E"/>
</g>
<defs>
<clipPath id="clip0">
<rect width="18.0711" height="18" fill="white"/>
</clipPath>
</defs>
</svg>
